<svg height="511pt" viewBox="-34 1 511 511.999" width="511pt" xmlns="http://www.w3.org/2000/svg"><path d="m222.203125 0-221.703125 128v256l221.703125 128 221.703125-128v-256zm176.582031 136.683594-176.582031 101.949218-176.582031-101.949218 176.582031-101.949219zm-368.207031 26.050781 176.582031 101.949219v203.898437l-176.582031-101.949219zm206.664063 305.847656v-203.898437l176.582031-101.953125v203.902343zm0 0"/><path d="m242.253906 139.691406c0 11.074219-8.976562 20.050782-20.050781 20.050782-11.078125 0-20.054687-8.976563-20.054687-20.050782 0-11.074218 8.976562-20.054687 20.054687-20.054687 11.074219 0 20.050781 8.980469 20.050781 20.054687zm0 0"/><path d="m372.601562 280.0625c0 11.074219-8.980468 20.054688-20.054687 20.054688s-20.050781-8.980469-20.050781-20.054688 8.976562-20.050781 20.050781-20.050781 20.054687 8.976562 20.054687 20.050781zm0 0"/><path d="m322.46875 350.25c0 11.074219-8.980469 20.054688-20.054688 20.054688-11.074218 0-20.050781-8.980469-20.050781-20.054688s8.976563-20.054688 20.050781-20.054688c11.074219 0 20.054688 8.980469 20.054688 20.054688zm0 0"/><path d="m182.09375 390.355469c0 11.074219-8.976562 20.054687-20.050781 20.054687s-20.054688-8.980468-20.054688-20.054687 8.980469-20.050781 20.054688-20.050781 20.050781 8.976562 20.050781 20.050781zm0 0"/><path d="m91.855469 239.957031c0 11.074219-8.976563 20.054688-20.050781 20.054688-11.078126 0-20.054688-8.980469-20.054688-20.054688s8.976562-20.054687 20.054688-20.054687c11.074218 0 20.050781 8.980468 20.050781 20.054687zm0 0"/><path d="m136.976562 315.15625c0 11.074219-8.980468 20.054688-20.054687 20.054688s-20.050781-8.980469-20.050781-20.054688 8.976562-20.054688 20.050781-20.054688 20.054687 8.980469 20.054687 20.054688zm0 0"/></svg>