<svg id="Layer_1" data-name="Layer 1" xmlns="http://www.w3.org/2000/svg" viewBox="0 0 432.46 279.22"><defs><style>.cls-1{fill:aqua;}</style></defs><title>neat</title><g id="OZEEcm.tif"><path d="M524.32,422.62c-4.19-5.34-1.3-2.39-1.34-8.85-.06-11.17-2.07-20.15-11.59-26.1-9-5.64-19.24-6.15-27.37.24-14.34,11.29-10.63,17-12.24,23.54.58-.78.9-.17,1.49.24a15.68,15.68,0,0,0-2.2,1.88,17.18,17.18,0,0,1-.93,1.71c.17-.49.32-.9.47-1.29a14.35,14.35,0,0,1-3.08,2.49c-15.15,4.61-30.17,9.66-45.52,13.44-4,1-10-.74-13.24-3.42-13.3-10.88-30.54-11.24-41.67.64-8.36,8.95-6.85,13.61-10.39,19.63-7.29-5.51-17-15.88-25.56-22.39-.71,7.12,1.24,14.59.51,21.78H285.82l.08,4.61h46c.56,7-1.49,14.13-.93,21,8.88-6.81,18.88-15,26.61-20.93,6.57,25.48,34.33,34,49.89,19.9,11.59-10.46,10.32-8,28.13-2.8,9.34,2.71,18.73,5.58,27.54,9.63,9.9,4.54,7.14,5.88,7.83,9.52,3.05,16,14.34,25.73,29.68,24.12,14.86-1.56,23.45-13.59,22.59-30.59-.14-3.29-2.31-4.76,3.86-9.83,8.44-6.93,18.2-12.07,27.42-18,7.66,5.2,14.9,9.71,21.66,14.86a11.6,11.6,0,0,1,4.27,7.49c.53,8.63.22,17.29.22,27.44-18.32,12.05-37.84,25.18-57.77,37.69-2.41,1.51-7.49.8-10.39-.68-13.44-7-23.44-5.74-34.61,3.88-2.91,2.48-8.57,4.07-12.1,3.07-12.86-3.66-25.25-8.9-38-12.88-6.81-2.12-10.57-4.51-10.74-13-.24-13.17-10.85-23.93-23.2-26.34-13.29-2.61-26.1,3.73-32.42,16.17-1.39,2.73-2.46,5.61-3.9,8.93-8.1-6-18.1-11.66-26.56-18-.66,7.59,1.31,13,.68,20.25H286.07l0,4.34h45.74c.76,6.93-1.19,13.9-.54,20,8.69-6.59,18.45-14.59,26-20.27,11.59,30.1,32.44,35.27,55,14.75,2.19-2,7.32-2.53,10.42-1.58,13.95,4.27,27.8,9,41.34,14.39,3.13,1.24,6.52,5.54,7.1,8.88,2.93,17,14.22,26.71,30.13,24.81,14.81-1.76,23-13.83,22.1-31-.2-3.51,1.93-8.63,4.71-10.54,19.37-13.36,39.2-26.1,58.66-38.88,24.74,15,40.23,9.81,52.23-17h51c.42,5,.78,9.27,1.32,16,9.76-7.78,18-14.35,26.93-21.44-9.61-7.59-17.71-14-26.93-21.33-.63,7.66-1.07,13.1-1.54,18.79H638.92c-12-30.93-33.9-30.81-54.32-16.39-7.44-5.1-15.08-10.37-23.76-16.32,8.22-5.42,15.47-10.44,23-15a8.78,8.78,0,0,1,6.58-.44c27.4,9.74,36.33,6.2,48.52-19.29h51c.37,5.54.66,10.24,1.12,17l27.18-21.37L691,388.47c-.46,7.32-.75,12.08-1.1,17.32H638.44c-10.13-25.86-24.1-30.81-49.57-18.59-2.61,1.25-7.59-.14-10.39-2-16-10.44-31.5-21.62-47.5-32-6.39-4.15-9.44-7.9-7.9-16.49,2.41-13.34-7.1-25.44-19.69-28-13.29-2.75-25.64,2.56-29.78,16.52-3.44,11.56-4.95,13-22.15,20.88-8.83,4-18.37,6.49-27.32,10.27-5.74,2.41-9.54,2.39-13.88-2.9-6.2-7.59-15.59-12-25.3-10.69-16.51,2.2-23.74,12.91-27.37,27.64-8.32-6.1-18.27-14.05-26.71-20.22-.54,6.95,1.51,14.15,1.12,19.22-15.59,2.32-27.81.54-46.15,2.27.14,3.24.07,1.85.22,5.12h46.17c.37,6.56-1.78,13.73-1.39,20.76,9.08-6.93,19.06-15.15,26.69-21,8.78,19.27,18.66,26.39,33.91,24.78,14.59-1.51,21.71-10.32,26.27-31.44.51-2.44,3.37-5.3,5.81-6.25,16.17-6.34,32.54-12.24,48.61-18.2,11.3,8.52,13.54,12,22.28,12.86,9.34,1,10.36-1.2,20.41-4.12,2.37-.69,6.17.19,8.44,1.71q26.38,17.52,52.3,35.76c2.44,1.7,5.37,5.46,4.79,8.34-2,9.78-.76,14.59,1.46,25.61l-1.32.95c-6.46,4.66-11,8.08-14.59,10.32l-8.83,6.25m52.45-56.33c12,.64,22,11.25,21.86,23.23-.15,12.46-11.22,23.12-23.62,22.75a23,23,0,1,1,1.76-46Zm-220.84,8.05A22.73,22.73,0,0,1,365,372.3c-.13-13,10.31-23.1,23.51-22.83a22.92,22.92,0,0,1,22.08,23.88A22.28,22.28,0,0,1,388.69,394.86Zm.08,75.57A22.69,22.69,0,0,1,365,447.94c-.17-14.85,13.51-26.05,29.39-22.1a21.47,21.47,0,0,1,15.73,16.81C413,457.58,402.89,470,388.77,470.43Zm144-11.39c-14.69,9.71-14.69,9.71-25.47,2.69-9.81-6.4-21-2.35-29.76,6.39-2.29,2.29-2,6.24-9.85,3.51-16.42-5.71-33.06-10.86-49.84-16.51V438.45c16.44-4.9,33.69-10.39,51.18-14.92,2.7-.71,7.05,2.34,9.75,4.68,10.05,8.68,19.87,8,32.4,3.56,6.74-2.4,9.05-3,13.81.59,7,5.36,14.58,10.12,23.44,16.19C542.11,452.72,537.45,455.92,532.74,459ZM410.16,528.25a21.58,21.58,0,0,1-15.52,16.88c-16,4.22-30-7.34-29.63-22.32a22.66,22.66,0,0,1,24-22.22C403,501.15,412.94,513.44,410.16,528.25Zm198.37-19.86a23,23,0,0,1-.95-46,23.37,23.37,0,0,1,23.78,22.5C631.68,497.29,621,508.29,608.53,508.39ZM470.61,414a4.48,4.48,0,0,1,.46-.42,11.74,11.74,0,0,0,.71-2.12A12.94,12.94,0,0,0,470.61,414Z" transform="translate(-285.82 -308)"/><path class="cls-1" d="M608,434a24.06,24.06,0,1,1,1.84-48.08c12.58.67,23,11.77,22.85,24.28C632.49,423.25,620.93,434.39,608,434Z" transform="translate(-285.82 -308)"/><path class="cls-1" d="M631.38,485.67c.31,12.64-10.58,23.85-23.26,23.95a23.43,23.43,0,0,1-1-46.83A23.79,23.79,0,0,1,631.38,485.67Z" transform="translate(-285.82 -308)"/><path class="cls-1" d="M411,372.57a22.91,22.91,0,0,1-22.52,23.51,23.36,23.36,0,0,1-24.34-23.18c-.11-13.27,10.52-23.64,24-23.44A22.71,22.71,0,0,1,411,372.57Z" transform="translate(-285.82 -308)"/><path class="cls-1" d="M413,447.59c.1,13.31-9.74,23.65-22.91,24.06a23.78,23.78,0,0,1-24.9-23.56c-.16-13.53,10.65-24.16,24.41-24A23.21,23.21,0,0,1,413,447.59Z" transform="translate(-285.82 -308)"/><path class="cls-1" d="M411,524.39a22.86,22.86,0,0,1-23.18,22.84,23.29,23.29,0,0,1-23.66-23.83c.31-13.28,11.19-23.35,24.66-22.82C401.74,501.1,411.27,511.33,411,524.39Z" transform="translate(-285.82 -308)"/></g></svg>