<svg id="Layer_1" data-name="Layer 1" xmlns="http://www.w3.org/2000/svg" viewBox="0 0 265.33 190"><defs><style>.cls-1,.cls-11,.cls-2,.cls-3,.cls-4,.cls-5{fill:none;}.cls-1,.cls-2,.cls-3,.cls-5,.cls-8{stroke:#b3b3b3;}.cls-1,.cls-11,.cls-2,.cls-3,.cls-4,.cls-5,.cls-8{stroke-miterlimit:10;}.cls-1,.cls-2,.cls-3,.cls-5{stroke-width:2px;}.cls-2{stroke-dasharray:8.82 4.41;}.cls-3{stroke-dasharray:9.42 4.71;}.cls-4{stroke:#000;stroke-linecap:round;stroke-width:4px;}.cls-5{stroke-dasharray:7.65 3.83;}.cls-6{fill:#ceaa61;}.cls-7{fill:#474643;}.cls-8,.cls-9{fill:#b3b3b3;}.cls-8{stroke-width:1.7px;}.cls-10{font-size:24px;}.cls-10,.cls-12{font-family:TimesNewRomanPS-ItalicMT, Times New Roman;font-style:italic;}.cls-11{stroke:#4d4d4d;stroke-width:3px;}.cls-12{font-size:15.19px;}</style></defs><title>pole-balancing</title><line class="cls-1" x1="100.67" y1="151.67" x2="100.67" y2="155.67"/><line class="cls-2" x1="100.67" y1="160.08" x2="100.67" y2="171.1"/><line class="cls-1" x1="100.67" y1="173.31" x2="100.67" y2="177.31"/><line class="cls-1" x1="132.67" y1="151.67" x2="132.67" y2="155.67"/><line class="cls-3" x1="132.67" y1="160.38" x2="132.67" y2="172.15"/><line class="cls-1" x1="132.67" y1="174.5" x2="132.67" y2="178.5"/><path class="cls-1" d="M659.93,473.71c10.11-1.45,20.31,1.46,29.67,7.73" transform="translate(-561 -436.52)"/><polyline class="cls-4" points="99.94 91.52 120.13 56.59 151.67 2"/><line class="cls-1" x1="99.8" y1="5" x2="99.8" y2="9"/><line class="cls-5" x1="99.8" y1="12.83" x2="99.8" y2="91.28"/><line class="cls-1" x1="99.8" y1="93.19" x2="99.8" y2="97.19"/><rect class="cls-6" x="59.8" y="89" width="80" height="47.33"/><circle class="cls-7" cx="71.33" cy="140.67" r="9.33"/><circle class="cls-7" cx="130.33" cy="140.67" r="9.33"/><line class="cls-8" x1="59.67" y1="112.67" x2="5.67" y2="112.67"/><line class="cls-9" x1="54.29" y1="112.67" x2="61.45" y2="112.67"/><polygon class="cls-9" points="54.29 107.67 61.45 112.67 54.29 117.67 54.29 107.67"/><text class="cls-10" transform="translate(27.33 100.67)">F</text><path class="cls-1" d="M656.64,441.19" transform="translate(-561 -436.52)"/><text class="cls-10" transform="translate(112.77 27.19)">θ</text><line class="cls-11" y1="150" x2="265.33" y2="150"/><text class="cls-12" transform="translate(113.88 185.32) rotate(0.2) scale(0.99 1)">x</text><line class="cls-8" x1="132.67" y1="181.52" x2="122.01" y2="181.52"/><line class="cls-9" x1="130.06" y1="181.52" x2="134.5" y2="181.52"/><polygon class="cls-9" points="130.06 178.52 134.5 181.52 130.06 184.52 130.06 178.52"/><line class="cls-8" x1="100.77" y1="181.52" x2="111.42" y2="181.52"/><line class="cls-9" x1="103.38" y1="181.52" x2="98.94" y2="181.52"/><polygon class="cls-9" points="103.38 184.52 98.94 181.52 103.38 178.52 103.38 184.52"/></svg>